<svg width="96" height="22" viewBox="0 0 96 22" fill="none" xmlns="http://www.w3.org/2000/svg">
<rect width="96" height="22" fill="#1E1E1E"/>
<path d="M32.7887 1L0.676025 3.4662V18.4278L32.7887 20.5652H63.5493L95.3239 18.4278V3.4662L63.5493 1H32.7887Z" fill="#D9D9D9" stroke="#D9D9D9"/>
<rect x="33.3768" y="16.9022" width="29.9225" height="3.84783" fill="#1E1E1E" stroke="black" stroke-width="0.5"/>
<line y1="4.84782" x2="96" y2="4.84782" stroke="black"/>
<line y1="16.1522" x2="96" y2="16.1522" stroke="black"/>
<line y1="10.5" x2="5.40845" y2="10.5" stroke="#1E1E1E"/>
<line x1="88.5634" y1="10.5" x2="93.9718" y2="10.5" stroke="#1E1E1E"/>
<line x1="51.3803" y1="10.5" x2="56.7887" y2="10.5" stroke="#1E1E1E"/>
<line x1="81.1268" y1="10.5" x2="86.5352" y2="10.5" stroke="#1E1E1E"/>
<line x1="58.8169" y1="10.5" x2="64.2254" y2="10.5" stroke="#1E1E1E"/>
<line x1="66.2535" y1="10.5" x2="71.662" y2="10.5" stroke="#1E1E1E"/>
<line x1="73.6901" y1="10.5" x2="79.0986" y2="10.5" stroke="#1E1E1E"/>
<line x1="43.9437" y1="10.5" x2="49.3521" y2="10.5" stroke="#1E1E1E"/>
<line x1="36.507" y1="10.5" x2="41.9155" y2="10.5" stroke="#1E1E1E"/>
<line x1="29.7465" y1="10.5" x2="35.1549" y2="10.5" stroke="#1E1E1E"/>
<line x1="22.3099" y1="10.5" x2="27.7183" y2="10.5" stroke="#1E1E1E"/>
<line x1="14.8732" y1="10.5" x2="20.2817" y2="10.5" stroke="#1E1E1E"/>
<line x1="7.43661" y1="10.5" x2="12.8451" y2="10.5" stroke="#1E1E1E"/>
</svg>
