<svg width="87" height="15" viewBox="0 0 87 15" fill="none" xmlns="http://www.w3.org/2000/svg">
<path d="M14.5068 1.25L2 7.5L14.5068 13.75H71.9247L84.4315 7.5L71.9247 1.25H14.5068Z" fill="#D9D9D9" stroke="#D9D9D9"/>
<path d="M14.2226 1.25V14L2 7.5L14.2226 1.25Z" stroke="black"/>
<path d="M72.2089 1V14L85 7.75L72.2089 1Z" stroke="black"/>
<rect x="7.11642" y="6.75" width="5.68493" height="1" fill="black"/>
<rect x="25.8767" y="6.75" width="5.68493" height="1" fill="black"/>
<rect x="55.4384" y="6.75" width="5.68493" height="1" fill="black"/>
<rect x="75.3356" y="6.75" width="5.68493" height="1" fill="black"/>
<path d="M14.5068 1L71.9246 14V1L14.5068 14" stroke="black"/>
<rect x="17.9178" y="5.25" width="9.66438" height="4" fill="#1E1E1E"/>
<rect x="17.9178" y="5.25" width="9.66438" height="4" fill="#1E1E1E"/>
<rect x="59.4178" y="5.25" width="9.66438" height="4" fill="#1E1E1E"/>
</svg>
