<svg width="55" height="14" viewBox="0 0 55 14" fill="none" xmlns="http://www.w3.org/2000/svg">
<path d="M53.8098 5.43804C55.3677 5.92489 55.3677 8.07511 53.8098 8.56196L36.658 13.9218C36.4516 13.9863 36.2343 14.0113 36.0182 13.9953L1.55466 11.453C0.677706 11.3883 -2.27825e-06 10.6753 -2.27825e-06 9.81747V4.18253C-2.27825e-06 3.32467 0.677706 2.61173 1.55466 2.54704L36.0182 0.00467058C36.2343 -0.0112735 36.4516 0.0136936 36.658 0.0781974L53.8098 5.43804Z" fill="#D9D9D9"/>
<path fill-rule="evenodd" clip-rule="evenodd" d="M36.487 13.4011L53.6388 8.04131C54.6774 7.71674 54.6774 6.28326 53.6388 5.95869L36.487 0.598851C36.3494 0.555848 36.2045 0.539203 36.0604 0.549833L1.59693 3.0922C1.01229 3.13533 0.560486 3.61062 0.560486 4.18253V9.81747C0.560486 10.3894 1.01229 10.8647 1.59693 10.9078L36.0604 13.4502C36.2045 13.4608 36.3494 13.4442 36.487 13.4011ZM53.8098 8.56196C55.3677 8.07511 55.3677 5.92489 53.8098 5.43804L36.658 0.0781974C36.4516 0.0136935 36.2343 -0.0112735 36.0182 0.00467057L1.55466 2.54704C0.677705 2.61173 -2.27825e-06 3.32467 -2.27825e-06 4.18253V9.81747C-2.27825e-06 10.6753 0.677705 11.3883 1.55466 11.453L36.0182 13.9953C36.2343 14.0113 36.4516 13.9863 36.658 13.9218L53.8098 8.56196Z" fill="black"/>
<path d="M36.3886 2.35441V11.6456C36.3886 12.7557 37.4954 13.5452 38.5799 13.2086L53.5481 8.56297C55.1103 8.07812 55.1103 5.92192 53.5481 5.43707L38.5799 0.791457C37.4954 0.454881 36.3886 1.24434 36.3886 2.35441Z" fill="black"/>
<path fill-rule="evenodd" clip-rule="evenodd" d="M38.4949 1.05194C37.5912 0.771464 36.6688 1.42935 36.6688 2.3544V11.6456C36.6688 12.5707 37.5912 13.2286 38.4949 12.9481L53.4631 8.30247C54.7649 7.89843 54.7649 6.1016 53.4631 5.69756L38.4949 1.05194ZM36.1083 2.3544C36.1083 1.05932 37.3996 0.138289 38.6648 0.530962L53.6331 5.17658C55.4556 5.74223 55.4556 8.2578 53.6331 8.82345L38.6648 13.4691C37.3996 13.8617 36.1083 12.9407 36.1083 11.6456V2.3544Z" fill="#D9D9D9"/>
<path d="M13.354 6.03731H19.6315V8.33353H13.354V6.03731Z" fill="black"/>
<path d="M17.8379 7.02141H22.7702V7.34944H17.8379V7.02141Z" fill="black"/>
<path d="M2.19879 8.07423H6.22637V10.625H2.19879V8.07423Z" fill="black"/>
<path d="M3.3454 8.5844H8.24647V10.1148H3.3454V8.5844Z" fill="black"/>
<path d="M2.19879 3.44632H6.22637V5.99707H2.19879V3.44632Z" fill="black"/>
<path d="M3.3454 3.95647H8.24647V5.48691H3.3454V3.95647Z" fill="black"/>
<path d="M23.7106 6.03731H29.9881V8.33353H23.7106V6.03731Z" fill="black"/>
<path d="M28.1945 7.02138H33.1268V7.34941H28.1945V7.02138Z" fill="black"/>
</svg>
