<svg width="64" height="9" viewBox="0 0 64 9" fill="none" xmlns="http://www.w3.org/2000/svg">
<path d="M9.49533 2.61539H14.8365V5.88462H9.49533V2.61539Z" fill="black"/>
<path d="M50.782 6.6854L47.8464 7.36601C47.6613 7.40893 47.4718 7.43061 47.2818 7.43061L16.2182 7.43061C16.0282 7.43061 15.8387 7.40893 15.6536 7.36601L12.718 6.6854C10.1375 6.08712 10.1375 2.41288 12.718 1.8146L15.6536 1.13399C15.8387 1.09107 16.0282 1.06939 16.2182 1.06939L47.2818 1.06939C47.4718 1.06939 47.6613 1.09107 47.8464 1.13399L50.782 1.8146C53.3625 2.41288 53.3625 6.08712 50.782 6.6854Z" fill="#D9D9D9" stroke="black"/>
<rect x="28.486" y="2.61539" width="6.52804" height="3.26923" fill="black"/>
</svg>
